HIERARCHY
ROOT Hips
{
	OFFSET 0.000000 103.266502 0.000000
	CHANNELS 6 Xposition Yposition Zposition Xrotation Yrotation Zrotation 
	JOINT Spine
	{
		OFFSET -0.002400 12.777504 0.315300
		CHANNELS 3 Xrotation Yrotation Zrotation
		JOINT Spine1
		{
			OFFSET -0.002067 5.816869 0.032633
			CHANNELS 3 Xrotation Yrotation Zrotation
			JOINT Spine1_split
			{
				OFFSET -0.002067 5.816869 0.032633
				CHANNELS 3 Xrotation Yrotation Zrotation
				JOINT Spine2
				{
					OFFSET -0.002067 5.816869 0.032633
					CHANNELS 3 Xrotation Yrotation Zrotation
					JOINT Neck
					{
						OFFSET -0.003700 21.199493 -0.826900
						CHANNELS 3 Xrotation Yrotation Zrotation
						JOINT Head
						{
							OFFSET 0.000000 20.442200 4.834800
							CHANNELS 3 Xrotation Yrotation Zrotation
							JOINT HeadTop_End
							{
								OFFSET 0.000000 34.668396 4.968400
								CHANNELS 3 Xrotation Yrotation Zrotation
								End Site
								{
									OFFSET 0.000000 0.000000 0.000000
								}
							}
						}
					}
					JOINT LeftShoulder
					{
						OFFSET 3.288150 8.794197 -1.372250
						CHANNELS 3 Xrotation Yrotation Zrotation
						JOINT LeftShoulder_split
						{
							OFFSET 3.288150 8.794197 -1.372250
							CHANNELS 3 Xrotation Yrotation Zrotation
							JOINT LeftArm
							{
								OFFSET 11.953299 -2.279007 -0.146200
								CHANNELS 3 Xrotation Yrotation Zrotation
								JOINT LeftForeArm
								{
									OFFSET 18.448900 0.000000 0.000000
									CHANNELS 3 Xrotation Yrotation Zrotation
									JOINT LeftHand
									{
										OFFSET 29.527798 0.000000 0.000000
										CHANNELS 3 Xrotation Yrotation Zrotation
										JOINT LeftHandThumb1
										{
											OFFSET 10.739754 -2.369614 9.225399
											CHANNELS 3 Xrotation Yrotation Zrotation
											JOINT LeftHandThumb2
											{
												OFFSET 4.926170 -2.844131 2.844125
												CHANNELS 3 Xrotation Yrotation Zrotation
												JOINT LeftHandThumb3
												{
													OFFSET 4.614891 -2.664413 2.664409
													CHANNELS 3 Xrotation Yrotation Zrotation
													JOINT LeftHandThumb4
													{
														OFFSET 4.432465 -2.559082 2.559083
														CHANNELS 3 Xrotation Yrotation Zrotation
														End Site
														{
															OFFSET 0.000000 0.000000 0.000000
														}
													}
												}
											}
										}
										JOINT LeftHandIndex1
										{
											OFFSET 26.467674 0.187653 6.405298
											CHANNELS 3 Xrotation Yrotation Zrotation
											JOINT LeftHandIndex2
											{
												OFFSET 8.792900 0.000000 0.000000
												CHANNELS 3 Xrotation Yrotation Zrotation
												JOINT LeftHandIndex3
												{
													OFFSET 10.075203 0.000000 0.000000
													CHANNELS 3 Xrotation Yrotation Zrotation
													End Site
													{
														OFFSET 0.000000 0.000000 0.000000
													}
												}
											}
										}
										JOINT LeftHandMiddle1
										{
											OFFSET 25.764404 0.000000 0.000000
											CHANNELS 3 Xrotation Yrotation Zrotation
											JOINT LeftHandMiddle2
											{
												OFFSET 9.393974 0.000000 0.000000
												CHANNELS 3 Xrotation Yrotation Zrotation
												JOINT LeftHandMiddle3
												{
													OFFSET 10.771950 0.000000 0.000000
													CHANNELS 3 Xrotation Yrotation Zrotation
													End Site
													{
														OFFSET 0.000000 0.000000 0.000000
													}
												}
											}
										}
										JOINT LeftHandRing1
										{
											OFFSET 24.660927 0.144547 -6.225808
											CHANNELS 3 Xrotation Yrotation Zrotation
											JOINT LeftHandRing2
											{
												OFFSET 9.393799 0.000000 0.000000
												CHANNELS 3 Xrotation Yrotation Zrotation
												JOINT LeftHandRing3
												{
													OFFSET 9.928497 0.000000 0.000000
													CHANNELS 3 Xrotation Yrotation Zrotation
													End Site
													{
														OFFSET 0.000000 0.000000 0.000000
													}
												}
											}
										}
										JOINT LeftHandPinky1
										{
											OFFSET 23.655350 0.125290 -12.815412
											CHANNELS 3 Xrotation Yrotation Zrotation
											JOINT LeftHandPinky2
											{
												OFFSET 8.425102 0.000000 0.000000
												CHANNELS 3 Xrotation Yrotation Zrotation
												JOINT LeftHandPinky3
												{
													OFFSET 8.147003 0.000000 0.000000
													CHANNELS 3 Xrotation Yrotation Zrotation
													End Site
													{
														OFFSET 0.000000 0.000000 0.000000
													}
												}
											}
										}
									}
								}
							}
						}
					}
					JOINT RightShoulder
					{
						OFFSET -3.249400 8.794197 -1.372250
						CHANNELS 3 Xrotation Yrotation Zrotation
						JOINT RightShoulder_split
						{
							OFFSET -3.249400 8.794197 -1.372250
							CHANNELS 3 Xrotation Yrotation Zrotation
							JOINT RightArm
							{
								OFFSET -11.953299 -2.279007 -0.146200
								CHANNELS 3 Xrotation Yrotation Zrotation
								JOINT RightForeArm
								{
									OFFSET -18.448900 0.000000 0.000000
									CHANNELS 3 Xrotation Yrotation Zrotation
									JOINT RightHand
									{
										OFFSET -29.527802 0.000000 0.000000
										CHANNELS 3 Xrotation Yrotation Zrotation
										JOINT RightHandThumb1
										{
											OFFSET -10.739754 -2.369614 9.225399
											CHANNELS 3 Xrotation Yrotation Zrotation
											JOINT RightHandThumb2
											{
												OFFSET -4.926170 -2.844131 2.844125
												CHANNELS 3 Xrotation Yrotation Zrotation
												JOINT RightHandThumb3
												{
													OFFSET -4.614891 -2.664413 2.664409
													CHANNELS 3 Xrotation Yrotation Zrotation
													JOINT RightHandThumb4
													{
														OFFSET -4.432465 -2.559082 2.559083
														CHANNELS 3 Xrotation Yrotation Zrotation
														End Site
														{
															OFFSET 0.000000 0.000000 0.000000
														}
													}
												}
											}
										}
										JOINT RightHandIndex1
										{
											OFFSET -26.467674 0.187653 6.405298
											CHANNELS 3 Xrotation Yrotation Zrotation
											JOINT RightHandIndex2
											{
												OFFSET -8.792900 0.000000 0.000000
												CHANNELS 3 Xrotation Yrotation Zrotation
												JOINT RightHandIndex3
												{
													OFFSET -10.075203 0.000000 0.000000
													CHANNELS 3 Xrotation Yrotation Zrotation
													End Site
													{
														OFFSET 0.000000 0.000000 0.000000
													}
												}
											}
										}
										JOINT RightHandMiddle1
										{
											OFFSET -25.764404 0.000000 0.000000
											CHANNELS 3 Xrotation Yrotation Zrotation
											JOINT RightHandMiddle2
											{
												OFFSET -9.393974 0.000000 0.000000
												CHANNELS 3 Xrotation Yrotation Zrotation
												JOINT RightHandMiddle3
												{
													OFFSET -10.771950 0.000000 0.000000
													CHANNELS 3 Xrotation Yrotation Zrotation
													End Site
													{
														OFFSET 0.000000 0.000000 0.000000
													}
												}
											}
										}
										JOINT RightHandRing1
										{
											OFFSET -24.660927 0.144547 -6.225808
											CHANNELS 3 Xrotation Yrotation Zrotation
											JOINT RightHandRing2
											{
												OFFSET -9.393799 0.000000 0.000000
												CHANNELS 3 Xrotation Yrotation Zrotation
												JOINT RightHandRing3
												{
													OFFSET -9.928497 0.000000 0.000000
													CHANNELS 3 Xrotation Yrotation Zrotation
													End Site
													{
														OFFSET 0.000000 0.000000 0.000000
													}
												}
											}
										}
										JOINT RightHandPinky1
										{
											OFFSET -23.655350 0.125290 -12.815412
											CHANNELS 3 Xrotation Yrotation Zrotation
											JOINT RightHandPinky2
											{
												OFFSET -8.425102 0.000000 0.000000
												CHANNELS 3 Xrotation Yrotation Zrotation
												JOINT RightHandPinky3
												{
													OFFSET -8.147003 0.000000 0.000000
													CHANNELS 3 Xrotation Yrotation Zrotation
													End Site
													{
														OFFSET 0.000000 0.000000 0.000000
													}
												}
											}
										}
									}
								}
							}
						}
					}
				}
			}
		}
	}
	JOINT LeftUpLeg
	{
		OFFSET 11.394100 -6.187798 -0.413800
		CHANNELS 3 Xrotation Yrotation Zrotation
		JOINT LeftLeg
		{
			OFFSET 0.430247 -32.302673 3.732800
			CHANNELS 3 Xrotation Yrotation Zrotation
			JOINT LeftFoot
			{
				OFFSET -0.430247 -48.264931 -6.423300
				CHANNELS 3 Xrotation Yrotation Zrotation
				JOINT LeftToeBase
				{
					OFFSET 4.230900 -16.068199 23.438400
					CHANNELS 3 Xrotation Yrotation Zrotation
					JOINT LeftToe_End
					{
						OFFSET 4.510700 0.695400 19.974600
						CHANNELS 3 Xrotation Yrotation Zrotation
						End Site
						{
							OFFSET 0.000000 0.000000 0.000000
						}
					}
				}
			}
		}
	}
	JOINT RightUpLeg
	{
		OFFSET -11.333700 -6.187798 -0.413800
		CHANNELS 3 Xrotation Yrotation Zrotation
		JOINT RightLeg
		{
			OFFSET -0.430392 -32.302628 3.733000
			CHANNELS 3 Xrotation Yrotation Zrotation
			JOINT RightFoot
			{
				OFFSET 0.430392 -48.264973 -6.423500
				CHANNELS 3 Xrotation Yrotation Zrotation
				JOINT RightToeBase
				{
					OFFSET -4.230900 -16.068199 23.438400
					CHANNELS 3 Xrotation Yrotation Zrotation
					JOINT RightToe_End
					{
						OFFSET -4.510700 0.695400 19.974600
						CHANNELS 3 Xrotation Yrotation Zrotation
						End Site
						{
							OFFSET 0.000000 0.000000 0.000000
						}
					}
				}
			}
		}
	}
}
MOTION
Frames: 6
Frame Time: 0.016667
0.180326 82.211182 -0.203129 -4.308691 -74.787833 -3.263330 2.952972 -0.411887 -1.589126 5.893829 -0.904739 -3.151097 0.000000 0.000000 0.000000 5.893812 -0.904582 -3.151110 -2.451540 24.309791 7.456975 0.154239 27.772024 -8.534002 0.000000 -0.000000 -0.000000 0.279790 -7.010248 -19.556604 0.000000 0.000000 0.000000 -39.504052 -20.309112 -2.427269 -5.614212 -32.071549 -2.800592 4.686481 -29.138014 18.780589 18.604739 9.201155 -20.335713 9.366549 23.517105 3.907234 15.631117 30.652229 0.949980 0.000000 -0.000001 -0.000000 5.062931 7.259540 -60.393489 0.009026 -4.396066 -76.234753 0.000001 -0.000001 -0.000000 -0.063961 4.758024 -60.986814 -0.080437 -4.896943 -84.974363 0.000001 -0.000002 -0.000000 -0.034402 -0.057009 -61.362276 -0.169953 -1.351953 -91.625376 -0.000001 0.000001 0.000001 -4.255079 -2.157313 -63.603172 -0.059593 -0.064777 -85.011109 0.000001 0.000000 -0.000000 0.636242 13.855907 9.110360 0.000000 0.000000 0.000000 35.455266 67.114409 -18.850887 0.649731 83.885289 -11.767057 -31.174063 -5.150259 -0.072249 15.959768 -4.187795 29.032218 -14.791968 -41.235498 -16.515543 1.538920 -36.186492 -16.491850 -0.000000 -0.000001 -0.000002 5.358206 -4.863573 67.585050 0.006264 4.394827 68.693412 0.000001 -0.000001 0.000001 -0.076809 -4.752187 70.834895 -0.076453 4.897900 82.216346 0.000004 0.000001 -0.000001 -1.164528 -6.475308 73.357482 -0.172076 1.351248 92.834401 -0.000001 -0.000000 -0.000001 -5.344944 -12.802394 81.125244 -0.058393 0.065306 84.695999 0.000000 -0.000001 0.000001 -43.507987 9.999447 50.467202 38.710357 -0.147223 -6.997397 11.913455 -2.477706 -21.766510 -0.022462 -0.002756 -0.055903 0.000000 -0.000001 0.000000 -45.723219 2.144172 -24.447453 60.252855 8.290937 -7.184836 -12.023326 -3.892838 22.431152 -0.005268 -0.000128 -0.000158 -0.000000 -0.000001 -0.000000 
0.180338 82.211029 -0.203021 -4.308679 -74.787805 -3.263386 2.952974 -0.411863 -1.589058 5.893828 -0.904734 -3.151098 0.000000 0.000000 0.000000 5.893816 -0.904604 -3.151104 -2.481197 24.333331 7.459437 0.160615 27.801739 -8.536966 0.000001 0.000000 0.000000 0.279789 -7.010229 -19.556606 0.000000 0.000000 0.000000 -39.570011 -20.279812 -2.378964 -5.525916 -32.234183 -2.805757 4.608335 -29.479984 18.629601 18.604737 9.201158 -20.335722 9.366550 23.517110 3.907234 15.631115 30.652229 0.949981 0.000000 -0.000001 0.000000 5.062936 7.259543 -60.393489 0.009029 -4.396067 -76.234747 0.000000 0.000002 0.000000 -0.063967 4.758035 -60.986821 -0.080439 -4.896945 -84.974363 0.000001 -0.000002 -0.000001 -0.034399 -0.057005 -61.362276 -0.169950 -1.351951 -91.625376 0.000002 0.000000 0.000001 -4.255078 -2.157305 -63.603179 -0.059596 -0.064777 -85.011109 0.000001 -0.000001 -0.000002 0.636228 13.855910 9.110393 0.000000 0.000000 0.000000 35.361047 66.921586 -19.125247 1.039767 84.331103 -12.064430 -30.137110 -3.581562 -2.922843 15.959768 -4.187794 29.032218 -14.791960 -41.235498 -16.515546 1.538914 -36.186489 -16.491854 0.000000 -0.000001 -0.000002 5.358212 -4.863574 67.585050 0.006264 4.394828 68.693412 0.000001 -0.000002 0.000001 -0.076810 -4.752189 70.834895 -0.076453 4.897900 82.216339 0.000003 0.000000 -0.000003 -1.164526 -6.475307 73.357488 -0.172074 1.351244 92.834401 -0.000003 0.000000 0.000000 -5.344944 -12.802390 81.125244 -0.058394 0.065312 84.695992 -0.000003 -0.000001 0.000001 -43.347181 9.843939 50.342124 38.737855 0.067619 -6.979260 11.898920 -2.477492 -21.848954 -0.022474 -0.002732 -0.055941 -0.000000 -0.000001 0.000000 -45.707482 2.169501 -24.426425 60.248709 8.256930 -7.187273 -12.024092 -3.896253 22.448214 -0.005270 -0.000100 -0.000158 -0.000000 -0.000001 -0.000000 
0.205630 82.415588 -0.203576 -5.305029 -75.214323 -4.261840 2.900381 -0.378971 -1.547747 5.790269 -0.823355 -3.057951 0.000000 0.000000 0.000000 5.790283 -0.823173 -3.058011 -2.569102 24.400588 7.466812 0.176401 27.894279 -8.544354 -0.000000 0.000003 -0.000001 0.268780 -7.020030 -19.607417 0.000000 0.000000 0.000000 -39.486877 -20.023365 -2.512445 -5.275125 -32.657146 -2.924886 4.324750 -29.568633 18.253887 18.604739 9.201162 -20.335713 9.366548 23.517110 3.907234 15.631118 30.652233 0.949980 0.000000 -0.000000 0.000000 5.062936 7.259544 -60.393489 0.009026 -4.396067 -76.234753 -0.000000 0.000001 -0.000000 -0.063961 4.758034 -60.986821 -0.080438 -4.896944 -84.974363 -0.000001 -0.000002 0.000000 -0.034403 -0.057002 -61.362276 -0.169952 -1.351952 -91.625376 0.000001 -0.000001 0.000001 -4.255076 -2.157309 -63.603179 -0.059597 -0.064776 -85.011109 -0.000001 -0.000001 -0.000000 0.634734 13.830905 9.149996 0.000000 0.000000 0.000000 35.145046 66.734800 -18.516969 1.797643 83.924023 -12.613917 -28.913779 -1.718595 -3.791594 15.959768 -4.187796 29.032218 -14.791968 -41.235495 -16.515539 1.538923 -36.186489 -16.491854 0.000002 -0.000001 -0.000003 5.358208 -4.863575 67.585043 0.006262 4.394827 68.693412 0.000001 0.000002 -0.000001 -0.076808 -4.752189 70.834888 -0.076453 4.897896 82.216346 -0.000007 -0.000000 0.000002 -1.164531 -6.475308 73.357482 -0.172077 1.351248 92.834401 -0.000001 0.000002 -0.000003 -5.344946 -12.802394 81.125244 -0.058392 0.065306 84.695992 0.000002 0.000002 0.000001 -42.553328 10.139197 50.275776 38.299118 0.603423 -6.869028 11.939894 -2.491735 -22.027381 -0.022501 -0.002718 -0.056033 -0.000000 -0.000001 0.000000 -45.417087 2.037305 -24.290050 59.790827 8.592613 -7.130632 -11.796096 -3.806838 22.238240 -0.005272 -0.000100 -0.000154 -0.000000 -0.000000 -0.000000 
0.241772 82.661568 -0.221712 -6.737470 -75.803570 -5.697823 2.820879 -0.332418 -1.499674 5.633339 -0.706297 -2.949004 0.000000 0.000000 0.000000 5.633328 -0.706346 -2.949007 -2.701127 24.509321 7.478632 0.204685 28.042615 -8.562603 0.000000 0.000001 -0.000000 0.235409 -7.052432 -19.747776 0.000000 0.000000 0.000000 -38.990886 -19.413549 -3.073284 -4.884518 -33.341329 -3.229828 3.787410 -29.109836 17.675555 18.604739 9.201162 -20.335708 9.366547 23.517110 3.907234 15.631115 30.652229 0.949983 0.000000 0.000000 0.000001 5.062935 7.259545 -60.393482 0.009028 -4.396067 -76.234747 0.000002 0.000000 0.000000 -0.063966 4.758037 -60.986814 -0.080435 -4.896946 -84.974363 -0.000002 -0.000003 -0.000000 -0.034404 -0.057003 -61.362269 -0.169949 -1.351951 -91.625376 0.000000 -0.000001 0.000000 -4.255078 -2.157308 -63.603166 -0.059596 -0.064775 -85.011103 0.000001 0.000003 -0.000000 0.630147 13.759752 9.265012 0.000000 0.000000 0.000000 34.557916 66.432059 -17.348044 2.853549 83.375347 -13.338988 -27.579624 0.446926 -4.373095 15.959768 -4.187795 29.032214 -14.791961 -41.235498 -16.515537 1.538918 -36.186489 -16.491854 -0.000000 0.000000 0.000001 5.358207 -4.863573 67.585050 0.006262 4.394832 68.693419 -0.000001 0.000002 -0.000001 -0.076815 -4.752189 70.834895 -0.076452 4.897898 82.216346 0.000001 0.000002 -0.000001 -1.164527 -6.475306 73.357488 -0.172078 1.351246 92.834401 0.000005 0.000001 -0.000002 -5.344950 -12.802393 81.125244 -0.058393 0.065305 84.695992 -0.000000 0.000000 0.000001 -41.557022 10.570684 50.262662 37.731744 1.249958 -6.744242 12.006685 -2.512866 -22.247681 -0.022497 -0.002741 -0.055996 0.000000 -0.000001 0.000000 -45.076861 1.906451 -24.069387 59.248852 9.026676 -7.060510 -11.502950 -3.691456 21.958689 -0.005273 -0.000093 -0.000158 -0.000000 -0.000000 -0.000000 
0.286745 82.945206 -0.258382 -8.605426 -76.490626 -7.569758 2.735408 -0.278408 -1.444786 5.463876 -0.576414 -2.823614 0.000000 0.000000 0.000000 5.463879 -0.576621 -2.823582 -2.878977 24.654572 7.494870 0.243572 28.241661 -8.588790 0.000000 -0.000001 -0.000000 0.178884 -7.112264 -19.959756 0.000000 0.000000 0.000000 -38.090029 -18.526656 -4.022172 -4.376973 -34.383674 -3.671992 3.181882 -28.539793 16.950648 18.604739 9.201158 -20.335713 9.366553 23.517117 3.907234 15.631117 30.652226 0.949981 0.000000 -0.000000 0.000001 5.062937 7.259543 -60.393489 0.009025 -4.396066 -76.234753 0.000000 0.000001 0.000001 -0.063961 4.758033 -60.986821 -0.080435 -4.896943 -84.974363 0.000001 0.000004 0.000001 -0.034403 -0.057002 -61.362276 -0.169956 -1.351954 -91.625376 -0.000000 0.000002 -0.000000 -4.255076 -2.157309 -63.603172 -0.059600 -0.064776 -85.011109 0.000001 -0.000000 -0.000001 0.618020 13.645866 9.451065 0.000000 0.000000 0.000000 33.426638 66.007720 -15.519194 3.993642 82.618877 -14.044123 -26.148309 2.831857 -4.678525 15.959772 -4.187796 29.032214 -14.791960 -41.235495 -16.515537 1.538918 -36.186486 -16.491855 0.000000 -0.000001 -0.000002 5.358210 -4.863575 67.585050 0.006262 4.394826 68.693412 -0.000002 -0.000001 -0.000001 -0.076812 -4.752190 70.834895 -0.076454 4.897899 82.216346 0.000002 0.000002 -0.000001 -1.164525 -6.475308 73.357482 -0.172079 1.351244 92.834401 0.000006 -0.000001 0.000000 -5.344945 -12.802396 81.125244 -0.058395 0.065308 84.695999 0.000002 0.000000 -0.000000 -40.398438 11.121391 50.274157 37.026490 1.977989 -6.614302 12.115366 -2.543134 -22.487705 -0.022690 -0.002742 -0.056530 0.000000 0.000000 0.000000 -44.674334 1.778327 -23.779864 58.627666 9.509251 -6.980669 -11.158443 -3.559131 21.636584 -0.005271 -0.000085 -0.000159 -0.000000 -0.000000 -0.000000 
0.338593 83.262955 -0.310387 -10.896484 -77.210207 -9.864177 2.664242 -0.229541 -1.382748 5.322959 -0.456872 -2.681131 0.000000 0.000000 0.000000 5.322964 -0.456667 -2.681138 -3.093952 24.832812 7.515475 0.298556 28.486246 -8.626049 0.000000 -0.000001 0.000000 0.098146 -7.204262 -20.225674 0.000000 0.000000 0.000000 -36.784571 -17.450461 -5.309880 -3.771985 -35.878451 -4.211596 2.519295 -27.865464 16.096423 18.604739 9.201161 -20.335712 9.366549 23.517110 3.907233 15.631115 30.652229 0.949982 -0.000000 0.000000 0.000000 5.062934 7.259545 -60.393496 0.009025 -4.396065 -76.234747 -0.000001 0.000001 0.000001 -0.063963 4.758031 -60.986821 -0.080434 -4.896944 -84.974363 -0.000000 0.000003 0.000001 -0.034403 -0.057002 -61.362276 -0.169956 -1.351954 -91.625376 0.000000 0.000001 -0.000001 -4.255079 -2.157308 -63.603172 -0.059595 -0.064777 -85.011109 -0.000000 -0.000001 -0.000001 0.602124 13.494645 9.701612 0.000000 0.000000 0.000000 31.635049 65.437030 -12.990359 5.033727 81.600502 -14.562827 -24.623498 5.453290 -4.921280 15.959773 -4.187795 29.032214 -14.791961 -41.235495 -16.515544 1.538918 -36.186489 -16.491862 -0.000000 0.000000 0.000001 5.358213 -4.863574 67.585050 0.006266 4.394828 68.693412 0.000002 0.000000 0.000002 -0.076810 -4.752189 70.834895 -0.076452 4.897900 82.216346 -0.000001 -0.000000 0.000001 -1.164526 -6.475307 73.357488 -0.172078 1.351244 92.834401 0.000001 0.000001 -0.000000 -5.344941 -12.802391 81.125244 -0.058393 0.065304 84.695992 0.000003 -0.000001 0.000003 -39.119891 11.772287 50.277299 36.180591 2.758535 -6.480892 12.273950 -2.584170 -22.726975 -0.022714 -0.002743 -0.056605 0.000000 -0.000005 0.000000 -44.193878 1.655640 -23.439908 57.927934 9.991495 -6.894817 -10.776829 -3.418663 21.301453 -0.005270 -0.000093 -0.000154 0.000000 0.000000 0.000000 
